<?xml version="1.0" encoding="UTF-8"?><svg id="Layer_1" xmlns="http://www.w3.org/2000/svg" viewBox="0 0 65 20"><defs><style>.cls-1{fill:#f4faf8;}.cls-2{fill:#fdb515;}</style></defs><path class="cls-2" d="m2.45,1.88h2.54l1.2,8.18.16,1.01c.08.55.13,1.04.17,1.5l.1,1.25s.01.09.02.17.02.19.03.31l.05-.48c.08-.83.16-1.6.24-2.29.09-.7.18-1.34.28-1.93l1.06-6.36h1.52l.99,6.18c.15.91.27,1.76.37,2.54s.18,1.53.24,2.24c.06-.75.13-1.47.21-2.17s.16-1.38.25-2.06l.14-.98,1.05-7.11h2.86l-3.76,16.06h-1.54l-1.04-6.35s-.02-.13-.05-.31-.06-.45-.11-.79l-.2-1.47c-.01-.11-.03-.29-.06-.51s-.06-.52-.09-.87l-.05-.61c-.01.15-.03.27-.04.38s-.02.2-.03.27c-.03.42-.06.74-.08.98s-.04.37-.04.42l-.2,1.41c-.04.32-.08.58-.1.76s-.04.3-.06.34l-1.08,6.35h-1.59L2.45,1.88Z"/><path class="cls-2" d="m15.93,3.24h5.27v1.68h-3.29v4.66h2.91v1.68h-2.91v5.02h3.29v1.68h-5.27V3.24Z"/><path class="cls-1" d="m21.68,1.88h1.95l1.2,8.18.16,1.01c.08.55.13,1.04.17,1.5l.1,1.25s.01.09.02.17.02.19.03.31l.05-.48c.08-.83.16-1.6.24-2.29s.18-1.34.28-1.93l1.06-6.36h1.52l.99,6.18c.15.91.27,1.76.37,2.54s.18,1.53.24,2.24c.06-.75.13-1.47.21-2.17s.16-1.38.25-2.06l.14-.98,1.05-7.11h1.93l-2.84,16.06h-1.54l-1.04-6.35s-.02-.13-.05-.31-.06-.45-.11-.79l-.2-1.47c-.01-.11-.03-.29-.06-.51s-.06-.52-.09-.87l-.05-.61c-.01.15-.03.27-.04.38s-.02.2-.03.27c-.03.42-.06.74-.08.98s-.04.37-.04.42l-.2,1.41c-.04.32-.08.58-.1.76s-.04.3-.06.34l-1.08,6.35h-1.59L21.68,1.88Z"/><path class="cls-1" d="m36.34,3.24h1.54l3.15,14.7h-1.96l-.55-2.87h-2.91l-.56,2.87h-1.9l3.2-14.7Zm1.9,10.3l-.44-2.34c-.29-1.59-.53-3.29-.71-5.1-.09.88-.2,1.78-.34,2.68s-.3,1.86-.5,2.88l-.36,1.89h2.35Z"/><path class="cls-1" d="m40.71,3.24h6.45v1.73h-2.22v12.97h-1.94V4.97h-2.29v-1.73Z"/><path class="cls-1" d="m54.02,3.47v1.78c-.51-.25-.93-.37-1.28-.37-.47,0-.87.12-1.21.35s-.61.59-.83,1.07c-.22.48-.38,1.09-.49,1.83s-.16,1.61-.16,2.62c0,3.63.93,5.45,2.79,5.45.32,0,.71-.1,1.17-.3v1.82c-.48.27-1.01.4-1.6.4-2.98,0-4.47-2.43-4.47-7.29,0-2.63.36-4.58,1.09-5.87s1.84-1.92,3.34-1.92c.55,0,1.1.15,1.64.44Z"/><path class="cls-1" d="m55.69,3.24h1.98v5.75h2.9V3.24h1.98v14.7h-1.98v-7.28h-2.9v7.28h-1.98V3.24Z"/></svg>